# xmcd
#
# Track frame offsets:
#	150
#	13362
#	23938
#	45800
#	57275
#	62619
#	72653
#	87133
#	100232
#	113510
#	123808
#	134882
#	143583
#	161701
#	175457
#	189802
#	201614
#
# Disc length: 2843 seconds
#
# Revision: 1
# Processed by: cddbd v1.5PL3 Copyright (c) Steve Scherf et al.
# Submitted via: dBpowerAMP V4.0
#
DISCID=f10b1911
DTITLE=Various Artist - The Best of Country and Western
DYEAR=1900
DGENRE=Country
TTITLE0=loretta lynn - let your love flow
TTITLE1=waylon jennings - dream baby
TTITLE2=willie nelson - city of new orleans
TTITLE3=johnny paycheck - heartaches by the number
TTITLE4=brenda lee - operator
TTITLE5=patsy cline - turn the cards slowly
TTITLE6=john denver - home grown tomatoes
TTITLE7=ferlin husky - a room full of roses
TTITLE8=johnny russell - catfish john
TTITLE9=patsy cline - pick me up on your way down
TTITLE10=jeannie c. riley - box of memories
TTITLE11=johnny cash - get rhythm
TTITLE12=tom t. hall - i like beer
TTITLE13=b.fairchild&b.owens - crazy love
TTITLE14=jerry lee lewis - what's made milwakee famous
TTITLE15=jack greene - there goes my everything
TTITLE16=roger miller - Little green apples
EXTD=
EXTT0=
EXTT1=
EXTT2=
EXTT3=
EXTT4=
EXTT5=
EXTT6=
EXTT7=
EXTT8=
EXTT9=
EXTT10=
EXTT11=
EXTT12=
EXTT13=
EXTT14=
EXTT15=
EXTT16=
PLAYORDER=
